<?xml version="1.0" encoding="UTF-8"?>
<svg width="104px" height="24px" viewBox="0 0 104 24" version="1.1" xmlns="http://www.w3.org/2000/svg" xmlns:xlink="http://www.w3.org/1999/xlink">
    <title>SHB-NetBot Logo</title>
    <g stroke="none" stroke-width="1" fill="none" fill-rule="evenodd">
        <g fill="#0A74DA" fill-rule="nonzero">
            <path d="M12,0 C18.6274,0 24,5.37258 24,12 C24,18.6274 18.6274,24 12,24 C5.37258,24 0,18.6274 0,12 C0,5.37258 5.37258,0 12,0 Z M12,4 C7.58172,4 4,7.58172 4,12 C4,16.4183 7.58172,20 12,20 C16.4183,20 20,16.4183 20,12 C20,7.58172 16.4183,4 12,4 Z M12,7 C14.7614,7 17,9.23858 17,12 C17,14.7614 14.7614,17 12,17 C9.23858,17 7,14.7614 7,12 C7,9.23858 9.23858,7 12,7 Z"></path>
        </g>
    </g>
</svg>