<?xml version="1.0" encoding="UTF-8"?>
<svg width="104px" height="24px" viewBox="0 0 104 24" version="1.1" xmlns="http://www.w3.org/2000/svg" xmlns:xlink="http://www.w3.org/1999/xlink">
    <title>Shinhan Bank Logo</title>
    <g stroke="none" stroke-width="1" fill="none" fill-rule="evenodd">
        <g fill="#3EB489" fill-rule="nonzero">
            <path d="M12,0 C18.6274,0 24,5.37258 24,12 C24,18.6274 18.6274,24 12,24 C5.37258,24 0,18.6274 0,12 C0,5.37258 5.37258,0 12,0 Z M12,4 C7.58172,4 4,7.58172 4,12 C4,16.4183 7.58172,20 12,20 C16.4183,20 20,16.4183 20,12 C20,7.58172 16.4183,4 12,4 Z M12,7 C14.7614,7 17,9.23858 17,12 C17,14.7614 14.7614,17 12,17 C9.23858,17 7,14.7614 7,12 C7,9.23858 9.23858,7 12,7 Z"></path>
            <path d="M35.224,5.84 L35.224,18.48 L32.12,18.48 L32.12,7.904 L28.36,18.48 L24.232,18.48 L20.504,7.904 L20.504,18.48 L17.4,18.48 L17.4,5.84 L23.032,5.84 L26.328,15.072 L29.624,5.84 L35.224,5.84 Z M43.576,5.84 C48.328,5.84 50.36,7.808 50.36,12.176 C50.36,16.56 48.312,18.48 43.576,18.48 L37.368,18.48 L37.368,5.84 L43.576,5.84 Z M43.384,15.856 C45.96,15.856 46.936,14.816 46.936,12.16 C46.936,9.52 45.96,8.464 43.384,8.464 L40.728,8.464 L40.728,15.856 L43.384,15.856 Z M58.424,5.84 C63.176,5.84 65.208,7.808 65.208,12.176 C65.208,16.56 63.16,18.48 58.424,18.48 L52.216,18.48 L52.216,5.84 L58.424,5.84 Z M58.232,15.856 C60.808,15.856 61.784,14.816 61.784,12.16 C61.784,9.52 60.808,8.464 58.232,8.464 L55.576,8.464 L55.576,15.856 L58.232,15.856 Z M75.672,5.84 L75.672,8.464 L70.152,8.464 L70.152,10.656 L75.128,10.656 L75.128,13.248 L70.152,13.248 L70.152,15.856 L75.672,15.856 L75.672,18.48 L66.792,18.48 L66.792,5.84 L75.672,5.84 Z M84.968,5.84 L84.968,8.464 L80.952,8.464 L80.952,18.48 L77.592,18.48 L77.592,8.464 L73.576,8.464 L73.576,5.84 L84.968,5.84 Z M86.776,12.288 C86.776,8.048 89.72,5.584 93.912,5.584 C98.088,5.584 101.032,8.048 101.032,12.288 C101.032,16.544 98.088,19.008 93.912,19.008 C89.72,19.008 86.776,16.544 86.776,12.288 Z M97.464,12.288 C97.464,9.744 96.104,8.304 93.912,8.304 C91.72,8.304 90.36,9.744 90.36,12.288 C90.36,14.832 91.72,16.272 93.912,16.272 C96.104,16.272 97.464,14.832 97.464,12.288 Z"></path>
        </g>
    </g>
</svg>